<svg width="42" height="42" viewBox="0 0 42 42" fill="none" xmlns="http://www.w3.org/2000/svg">
<path d="M19.2857 22.7143H10.7143C10.2286 22.7143 9.82172 22.5497 9.49372 22.2206C9.16572 21.8914 9.00115 21.4846 9.00001 21C8.99886 20.5154 9.16343 20.1086 9.49372 19.7794C9.82401 19.4503 10.2309 19.2857 10.7143 19.2857H19.2857V10.7143C19.2857 10.2286 19.4503 9.82172 19.7794 9.49372C20.1086 9.16572 20.5154 9.00115 21 9.00001C21.4846 8.99886 21.892 9.16343 22.2223 9.49372C22.5526 9.82401 22.7166 10.2309 22.7143 10.7143V19.2857H31.2857C31.7714 19.2857 32.1789 19.4503 32.508 19.7794C32.8371 20.1086 33.0011 20.5154 33 21C32.9989 21.4846 32.8343 21.892 32.5063 22.2223C32.1783 22.5526 31.7714 22.7166 31.2857 22.7143H22.7143V31.2857C22.7143 31.7714 22.5497 32.1789 22.2206 32.508C21.8914 32.8371 21.4846 33.0011 21 33C20.5154 32.9989 20.1086 32.8343 19.7794 32.5063C19.4503 32.1783 19.2857 31.7714 19.2857 31.2857V22.7143Z" fill="#262626"/>
</svg>
