<svg width="48" height="48" viewBox="0 0 48 48" fill="none" xmlns="http://www.w3.org/2000/svg">
<rect width="48" height="48" rx="8" fill="#A9C5EC"/>
<path d="M39.872 8.992C39.7096 8.60104 39.399 8.29036 39.008 8.128C38.8156 8.04601 38.6091 8.00253 38.4 8H28.8C28.3757 8 27.9687 8.16857 27.6686 8.46863C27.3686 8.76869 27.2 9.17565 27.2 9.6C27.2 10.0243 27.3686 10.4313 27.6686 10.7314C27.9687 11.0314 28.3757 11.2 28.8 11.2H34.544L11.2 34.544V28.8C11.2 28.3757 11.0314 27.9687 10.7314 27.6686C10.4313 27.3686 10.0243 27.2 9.6 27.2C9.17565 27.2 8.76869 27.3686 8.46863 27.6686C8.16857 27.9687 8 28.3757 8 28.8V38.4C8.00253 38.6091 8.04601 38.8156 8.128 39.008C8.29036 39.399 8.60104 39.7096 8.992 39.872C9.18436 39.954 9.39092 39.9975 9.6 40H19.2C19.6243 40 20.0313 39.8314 20.3314 39.5314C20.6314 39.2313 20.8 38.8243 20.8 38.4C20.8 37.9757 20.6314 37.5687 20.3314 37.2686C20.0313 36.9686 19.6243 36.8 19.2 36.8H13.456L36.8 13.456V19.2C36.8 19.6243 36.9686 20.0313 37.2686 20.3314C37.5687 20.6314 37.9757 20.8 38.4 20.8C38.8243 20.8 39.2313 20.6314 39.5314 20.3314C39.8314 20.0313 40 19.6243 40 19.2V9.6C39.9975 9.39092 39.954 9.18436 39.872 8.992Z" fill="#0A4BA6"/>
</svg>
