<svg width="42" height="42" viewBox="0 0 42 42" fill="none" xmlns="http://www.w3.org/2000/svg">
<rect width="42" height="42" rx="8" fill="white"/>
<path d="M29.7501 19.25H16.4676L22.2426 13.4925C22.5721 13.163 22.7572 12.716 22.7572 12.25C22.7572 11.784 22.5721 11.337 22.2426 11.0075C21.913 10.678 21.4661 10.4928 21.0001 10.4928C20.534 10.4928 20.0871 10.678 19.7576 11.0075L11.0076 19.7575C10.8482 19.9239 10.7234 20.1202 10.6401 20.335C10.465 20.761 10.465 21.2389 10.6401 21.665C10.7234 21.8798 10.8482 22.0761 11.0076 22.2425L19.7576 30.9925C19.9202 31.1565 20.1138 31.2867 20.3271 31.3755C20.5403 31.4644 20.769 31.5101 21.0001 31.5101C21.2311 31.5101 21.4598 31.4644 21.6731 31.3755C21.8863 31.2867 22.0799 31.1565 22.2426 30.9925C22.4066 30.8298 22.5368 30.6363 22.6256 30.423C22.7145 30.2097 22.7602 29.981 22.7602 29.75C22.7602 29.519 22.7145 29.2902 22.6256 29.077C22.5368 28.8637 22.4066 28.6702 22.2426 28.5075L16.4676 22.75H29.7501C30.2142 22.75 30.6593 22.5656 30.9875 22.2374C31.3157 21.9092 31.5001 21.4641 31.5001 21C31.5001 20.5359 31.3157 20.0907 30.9875 19.7626C30.6593 19.4344 30.2142 19.25 29.7501 19.25Z" fill="#0A4BA6"/>
</svg>
