<svg width="43" height="42" viewBox="0 0 43 42" fill="none" xmlns="http://www.w3.org/2000/svg">
<path d="M4.47925 21C4.47925 13.1635 4.47925 9.2435 6.97146 6.80925C9.46367 4.375 13.4752 4.375 21.5001 4.375C29.5232 4.375 33.5365 4.375 36.0287 6.80925C38.5209 9.2435 38.5209 13.1617 38.5209 21C38.5209 28.8365 38.5209 32.7565 36.0287 35.1907C33.5365 37.625 29.525 37.625 21.5001 37.625C13.477 37.625 9.46367 37.625 6.97146 35.1907C4.47925 32.7565 4.47925 28.8383 4.47925 21Z" stroke="black" stroke-width="2.625" stroke-linecap="round" stroke-linejoin="round"/>
<path d="M38.5209 23.625H29.6952C28.1866 23.625 27.0023 24.857 26.3358 26.1572C25.6137 27.5712 24.1679 28.875 21.5001 28.875C18.8323 28.875 17.3864 27.5712 16.6626 26.1572C15.9997 24.857 14.8136 23.625 13.305 23.625H4.47925" stroke="black" stroke-width="2.625" stroke-linecap="round" stroke-linejoin="round"/>
</svg>
