<svg width="48" height="48" viewBox="0 0 48 48" fill="none" xmlns="http://www.w3.org/2000/svg">
<rect width="48" height="48" rx="8" fill="#A9C5EC"/>
<path d="M28.858 12.4128C28.288 11.7288 27.4436 11.3333 26.5533 11.3333H21.4469C20.5565 11.3333 19.7122 11.7288 19.1422 12.4128L16.983 15.0039C16.413 15.6878 15.5686 16.0833 14.6783 16.0833H11.3334C10.4936 16.0833 9.68811 16.4169 9.09424 17.0108C8.50038 17.6047 8.16675 18.4101 8.16675 19.25V33.5C8.16675 34.3398 8.50038 35.1453 9.09424 35.7392C9.68811 36.333 10.4936 36.6666 11.3334 36.6666H36.6667C37.5066 36.6666 38.3121 36.333 38.9059 35.7392C39.4998 35.1453 39.8334 34.3398 39.8334 33.5V19.25C39.8334 18.4101 39.4998 17.6047 38.9059 17.0108C38.3121 16.4169 37.5066 16.0833 36.6667 16.0833H33.3219C32.4315 16.0833 31.5872 15.6878 31.0172 15.0039L28.858 12.4128Z" stroke="#0A4BA6" stroke-width="3" stroke-linecap="round" stroke-linejoin="round"/>
<path d="M24 30.3333C26.6234 30.3333 28.75 28.2067 28.75 25.5833C28.75 22.96 26.6234 20.8333 24 20.8333C21.3766 20.8333 19.25 22.96 19.25 25.5833C19.25 28.2067 21.3766 30.3333 24 30.3333Z" stroke="#0A4BA6" stroke-width="3" stroke-linecap="round" stroke-linejoin="round"/>
</svg>
