<svg width="42" height="42" viewBox="0 0 42 42" fill="none" xmlns="http://www.w3.org/2000/svg">
<path d="M31.4935 15.9015C31.6519 15.7487 31.7782 15.5659 31.8652 15.3638C31.9521 15.1617 31.9979 14.9442 31.9999 14.7242C32.0019 14.5041 31.9601 14.2859 31.8769 14.0822C31.7937 13.8785 31.6707 13.6934 31.5152 13.5378C31.3597 13.3821 31.1747 13.2589 30.9711 13.1755C30.7674 13.0921 30.5492 13.0501 30.3292 13.0519C30.1092 13.0537 29.8917 13.0993 29.6895 13.186C29.4872 13.2728 29.3043 13.399 29.1514 13.5572L22.5094 20.197L15.8696 13.5572C15.7179 13.3944 15.5349 13.2638 15.3317 13.1732C15.1284 13.0826 14.9089 13.0339 14.6864 13.03C14.4639 13.0261 14.2429 13.067 14.0365 13.1503C13.8302 13.2337 13.6427 13.3577 13.4854 13.5151C13.328 13.6725 13.204 13.8599 13.1206 14.0663C13.0373 14.2726 12.9963 14.4936 13.0003 14.7161C13.0042 14.9387 13.0529 15.1581 13.1435 15.3614C13.234 15.5647 13.3646 15.7476 13.5274 15.8993L20.1628 22.5413L13.523 29.1811C13.2303 29.4952 13.0709 29.9108 13.0785 30.3401C13.0861 30.7694 13.26 31.179 13.5636 31.4826C13.8673 31.7863 14.2769 31.9602 14.7062 31.9678C15.1355 31.9753 15.551 31.816 15.8652 31.5233L22.5094 24.8835L29.1492 31.5255C29.4633 31.8182 29.8788 31.9776 30.3081 31.97C30.7375 31.9624 31.1471 31.7885 31.4507 31.4849C31.7543 31.1812 31.9283 30.7716 31.9358 30.3423C31.9434 29.913 31.784 29.4975 31.4913 29.1833L24.856 22.5413L31.4935 15.9015Z" fill="white"/>
</svg>
