<svg width="26" height="22" viewBox="0 0 26 22" fill="none" xmlns="http://www.w3.org/2000/svg">
<g clip-path="url(#clip0_2157_856)">
<path fill-rule="evenodd" clip-rule="evenodd" d="M15.31 0.593018C15.6332 0.593015 15.9516 0.671342 16.2379 0.821291C16.5243 0.971241 16.77 1.18835 16.954 1.45402L17.042 1.59302L22.815 11.593C22.9755 11.8709 23.0667 12.1834 23.081 12.504C23.0952 12.8246 23.0321 13.1439 22.897 13.435L22.815 13.593L20.505 17.593C20.3435 17.8728 20.1165 18.1093 19.8436 18.2822C19.5707 18.4551 19.26 18.5594 18.938 18.586L18.774 18.593H7.22703C6.90365 18.5932 6.58506 18.5149 6.29856 18.365C6.01205 18.215 5.76619 17.9978 5.58202 17.732L5.49502 17.593L3.18502 13.593C3.02458 13.3151 2.93337 13.0026 2.91909 12.682C2.90482 12.3614 2.96791 12.0421 3.10302 11.751L3.18502 11.593L8.96002 1.59302C9.12169 1.31311 9.34878 1.07656 9.62187 0.90362C9.89495 0.73068 10.2059 0.626506 10.528 0.600018L10.691 0.593018H15.31ZM20.506 13.593H10.113L8.38102 16.593H18.774L20.506 13.593ZM10.114 3.59302L4.91702 12.593L6.64902 15.593L11.845 6.59302L10.114 3.59302ZM15.31 2.59302H11.846L17.042 11.593H20.506L15.31 2.59302ZM13 8.59302L11.268 11.593H14.732L13 8.59302Z" fill="black"/>
</g>
<defs>
<clipPath id="clip0_2157_856">
<rect width="24.1658" height="20.814" fill="white" transform="translate(0.917114 0.593018)"/>
</clipPath>
</defs>
</svg>
