<svg width="32" height="20" viewBox="0 0 32 20" fill="none" xmlns="http://www.w3.org/2000/svg">
<path d="M30.0958 18.1459H1.90344C2.6139 10.9867 8.65386 5.39587 15.9993 5.39587C23.3461 5.39587 29.3854 10.9867 30.0958 18.1459Z" stroke="black" stroke-width="2" stroke-linejoin="round"/>
<path d="M8.91597 6.81252L6.08264 1.85419M22.3743 6.81252L25.2076 1.85419" stroke="black" stroke-width="2" stroke-linecap="round" stroke-linejoin="round"/>
<path d="M9.62431 14.6042C10.4067 14.6042 11.041 13.9699 11.041 13.1875C11.041 12.4051 10.4067 11.7709 9.62431 11.7709C8.8419 11.7709 8.20764 12.4051 8.20764 13.1875C8.20764 13.9699 8.8419 14.6042 9.62431 14.6042Z" fill="black"/>
<path d="M22.3743 14.6042C23.1567 14.6042 23.791 13.9699 23.791 13.1875C23.791 12.4051 23.1567 11.7709 22.3743 11.7709C21.5919 11.7709 20.9576 12.4051 20.9576 13.1875C20.9576 13.9699 21.5919 14.6042 22.3743 14.6042Z" fill="black"/>
</svg>
