<svg width="24" height="24" viewBox="0 0 24 24" fill="none" xmlns="http://www.w3.org/2000/svg">
<path d="M13.1211 2.9375L12.7344 14.7852H9.92188L9.52344 2.9375H13.1211ZM9.42969 18.4531C9.42969 17.9531 9.60156 17.5391 9.94531 17.2109C10.2969 16.875 10.7578 16.707 11.3281 16.707C11.9062 16.707 12.3672 16.875 12.7109 17.2109C13.0547 17.5391 13.2266 17.9531 13.2266 18.4531C13.2266 18.9375 13.0547 19.3477 12.7109 19.6836C12.3672 20.0195 11.9062 20.1875 11.3281 20.1875C10.7578 20.1875 10.2969 20.0195 9.94531 19.6836C9.60156 19.3477 9.42969 18.9375 9.42969 18.4531Z" fill="white"/>
</svg>
