<svg width="24" height="24" viewBox="0 0 24 24" fill="none" xmlns="http://www.w3.org/2000/svg">
<path d="M21.919 10.127C21.9382 9.9969 21.9316 9.86428 21.8996 9.73674C21.8675 9.6092 21.8106 9.48923 21.7321 9.38371C21.6536 9.27819 21.5551 9.18919 21.4421 9.1218C21.3292 9.05441 21.2041 9.00996 21.0739 8.99099L15.423 8.16499L12.897 3.01799C12.8058 2.86067 12.6748 2.73008 12.5172 2.63934C12.3597 2.54859 12.181 2.50088 11.9992 2.50098C11.8173 2.50108 11.6387 2.54899 11.4812 2.63991C11.3238 2.73083 11.193 2.86157 11.102 3.01899L8.57695 8.16499L2.92595 8.99099C2.7415 9.01779 2.5682 9.0956 2.42562 9.21565C2.28304 9.3357 2.17685 9.49321 2.11903 9.67041C2.06121 9.84761 2.05407 10.0374 2.09841 10.2185C2.14274 10.3995 2.2368 10.5646 2.36995 10.695L6.46295 14.708L5.49695 20.372C5.46641 20.5558 5.48775 20.7445 5.55856 20.9169C5.62937 21.0893 5.74684 21.2385 5.89779 21.3478C6.04873 21.4571 6.22716 21.5221 6.41303 21.5356C6.5989 21.549 6.78483 21.5104 6.94995 21.424L12 18.754L17.049 21.423C17.2139 21.5103 17.3999 21.5497 17.5861 21.5368C17.7722 21.5239 17.951 21.4592 18.1023 21.3499C18.2536 21.2407 18.3713 21.0913 18.4421 20.9186C18.5129 20.746 18.534 20.557 18.503 20.373L17.537 14.708L21.631 10.694C21.7861 10.5414 21.8872 10.3423 21.919 10.127ZM16.65 14.177C16.5923 14.2335 16.5492 14.3031 16.5243 14.3799C16.4993 14.4567 16.4934 14.5384 16.507 14.618L17.517 20.539L12.233 17.746C12.1611 17.7082 12.0811 17.6884 12 17.6884C11.9188 17.6884 11.8388 17.7082 11.767 17.746L6.48295 20.54L7.49295 14.618C7.50649 14.5384 7.50055 14.4567 7.47565 14.3799C7.45075 14.3031 7.40762 14.2335 7.34995 14.177L3.06995 9.97999L8.98195 9.11599C9.06242 9.10427 9.1388 9.07309 9.2045 9.02517C9.27019 8.97725 9.32321 8.91403 9.35895 8.84099L12 3.45999L14.64 8.84199C14.6758 8.91516 14.729 8.97846 14.7948 9.02639C14.8607 9.07432 14.9373 9.10542 15.018 9.11699L20.931 9.97999L16.65 14.177Z" fill="white" stroke="white" stroke-width="0.5"/>
</svg>
