<svg width="29" height="30" viewBox="0 0 29 30" fill="none" xmlns="http://www.w3.org/2000/svg">
<path d="M10.5001 16.9649C10.3486 16.9649 10.2032 16.9047 10.0961 16.7975C9.98891 16.6903 9.92871 16.545 9.92871 16.3935C9.92871 16.2419 9.98891 16.0966 10.0961 15.9894C10.2032 15.8822 10.3486 15.822 10.5001 15.822H18.5001C18.6517 15.822 18.797 15.8822 18.9042 15.9894C19.0114 16.0966 19.0716 16.2419 19.0716 16.3935C19.0716 16.545 19.0114 16.6903 18.9042 16.7975C18.797 16.9047 18.6517 16.9649 18.5001 16.9649H10.5001ZM10.5001 20.3934C10.3486 20.3934 10.2032 20.3332 10.0961 20.2261C9.98891 20.1189 9.92871 19.9736 9.92871 19.822C9.92871 19.6705 9.98891 19.5251 10.0961 19.418C10.2032 19.3108 10.3486 19.2506 10.5001 19.2506H18.5001C18.6517 19.2506 18.797 19.3108 18.9042 19.418C19.0114 19.5251 19.0716 19.6705 19.0716 19.822C19.0716 19.9736 19.0114 20.1189 18.9042 20.2261C18.797 20.3332 18.6517 20.3934 18.5001 20.3934H10.5001Z" fill="black"/>
<path fill-rule="evenodd" clip-rule="evenodd" d="M15.8543 4.39331H8.21429C7.75963 4.39331 7.32359 4.57392 7.0021 4.89541C6.68061 5.2169 6.5 5.65294 6.5 6.1076V23.2505C6.5 23.7051 6.68061 24.1411 7.0021 24.4626C7.32359 24.7841 7.75963 24.9647 8.21429 24.9647H20.7857C21.2404 24.9647 21.6764 24.7841 21.9979 24.4626C22.3194 24.1411 22.5 23.7051 22.5 23.2505V11.4813C22.4999 11.0521 22.3388 10.6386 22.0486 10.3225L17.1183 4.94874C16.9576 4.77359 16.7623 4.63377 16.5447 4.53815C16.3271 4.44253 16.092 4.39321 15.8543 4.39331ZM7.64286 6.1076C7.64286 5.95604 7.70306 5.8107 7.81022 5.70354C7.91739 5.59637 8.06273 5.53617 8.21429 5.53617H15.8543C15.9336 5.53608 16.012 5.5525 16.0846 5.58437C16.1572 5.61625 16.2224 5.66288 16.276 5.72131L21.2063 11.095C21.3032 11.2004 21.357 11.3382 21.3571 11.4813V23.2505C21.3571 23.402 21.2969 23.5473 21.1898 23.6545C21.0826 23.7617 20.9373 23.8219 20.7857 23.8219H8.21429C8.06273 23.8219 7.91739 23.7617 7.81022 23.6545C7.70306 23.5473 7.64286 23.402 7.64286 23.2505V6.1076Z" fill="black"/>
<path d="M15.6429 11.2505H21.9286C22.0801 11.2505 22.2255 11.3107 22.3326 11.4178C22.4398 11.525 22.5 11.6703 22.5 11.8219C22.5 11.9734 22.4398 12.1188 22.3326 12.2259C22.2255 12.3331 22.0801 12.3933 21.9286 12.3933H15.0714C14.9199 12.3933 14.7745 12.3331 14.6674 12.2259C14.5602 12.1188 14.5 11.9734 14.5 11.8219V4.96474C14.5 4.81319 14.5602 4.66784 14.6674 4.56068C14.7745 4.45351 14.9199 4.39331 15.0714 4.39331C15.223 4.39331 15.3683 4.45351 15.4755 4.56068C15.5827 4.66784 15.6429 4.81319 15.6429 4.96474V11.2505Z" fill="black"/>
</svg>
