<svg width="42" height="42" viewBox="0 0 42 42" fill="none" xmlns="http://www.w3.org/2000/svg">
<path d="M34.125 7H28.875V4.375C28.875 4.14294 28.7828 3.92038 28.6187 3.75628C28.4546 3.59219 28.2321 3.5 28 3.5C27.7679 3.5 27.5454 3.59219 27.3813 3.75628C27.2172 3.92038 27.125 4.14294 27.125 4.375V7H14.875V4.375C14.875 4.14294 14.7828 3.92038 14.6187 3.75628C14.4546 3.59219 14.2321 3.5 14 3.5C13.7679 3.5 13.5454 3.59219 13.3813 3.75628C13.2172 3.92038 13.125 4.14294 13.125 4.375V7H7.875C6.7151 7.00139 5.60311 7.46277 4.78294 8.28294C3.96277 9.10311 3.50139 10.2151 3.5 11.375V34.125C3.50139 35.2849 3.96277 36.3969 4.78294 37.2171C5.60311 38.0372 6.7151 38.4986 7.875 38.5H34.125C35.2853 38.5 36.3981 38.0391 37.2186 37.2186C38.0391 36.3981 38.5 35.2853 38.5 34.125V11.375C38.5 10.2147 38.0391 9.10188 37.2186 8.28141C36.3981 7.46094 35.2853 7 34.125 7ZM36.75 34.125C36.75 34.8212 36.4734 35.4889 35.9812 35.9812C35.4889 36.4734 34.8212 36.75 34.125 36.75H7.875C7.17881 36.75 6.51113 36.4734 6.01884 35.9812C5.52656 35.4889 5.25 34.8212 5.25 34.125V19.25H36.75V34.125ZM36.75 17.5H5.25V11.375C5.25 9.926 6.4225 8.75 7.875 8.75H13.125V11.375C13.125 11.6071 13.2172 11.8296 13.3813 11.9937C13.5454 12.1578 13.7679 12.25 14 12.25C14.2321 12.25 14.4546 12.1578 14.6187 11.9937C14.7828 11.8296 14.875 11.6071 14.875 11.375V8.75H27.125V11.375C27.125 11.6071 27.2172 11.8296 27.3813 11.9937C27.5454 12.1578 27.7679 12.25 28 12.25C28.2321 12.25 28.4546 12.1578 28.6187 11.9937C28.7828 11.8296 28.875 11.6071 28.875 11.375V8.75H34.125C34.8212 8.75 35.4889 9.02656 35.9812 9.51884C36.4734 10.0111 36.75 10.6788 36.75 11.375V17.5Z" fill="black" stroke="black"/>
</svg>
