<svg width="42" height="42" viewBox="0 0 42 42" fill="none" xmlns="http://www.w3.org/2000/svg">
<g clip-path="url(#clip0_2157_754)">
<path d="M20.9999 2.33331C17.308 2.33331 13.699 3.42809 10.6293 5.47921C7.55956 7.53033 5.16701 10.4457 3.75418 13.8566C2.34134 17.2674 1.97168 21.0207 2.69194 24.6417C3.41219 28.2626 5.19002 31.5887 7.8006 34.1993C10.4112 36.8099 13.7373 38.5877 17.3582 39.308C20.9792 40.0282 24.7325 39.6586 28.1434 38.2457C31.5542 36.8329 34.4696 34.4403 36.5207 31.3706C38.5718 28.3009 39.6666 24.6919 39.6666 21C39.6666 16.0493 37.6999 11.3013 34.1993 7.80065C30.6986 4.29997 25.9506 2.33331 20.9999 2.33331ZM20.9999 37.3333C17.7695 37.3333 14.6116 36.3754 11.9256 34.5807C9.23961 32.7859 7.14613 30.235 5.90989 27.2505C4.67366 24.2659 4.35021 20.9819 4.98043 17.8135C5.61066 14.6451 7.16626 11.7348 9.45052 9.45057C11.7348 7.16631 14.6451 5.61071 17.8135 4.98049C20.9818 4.35026 24.2659 4.67372 27.2504 5.90995C30.2349 7.14618 32.7859 9.23966 34.5806 11.9257C36.3753 14.6117 37.3333 17.7696 37.3333 21C37.3333 25.3318 35.6124 29.4863 32.5493 32.5494C29.4862 35.6125 25.3318 37.3333 20.9999 37.3333Z" fill="black"/>
<path d="M21.3384 10.4067C20.0742 10.3858 18.8208 10.6436 17.6675 11.1618C16.5141 11.68 15.489 12.4459 14.6651 13.405C14.5506 13.5111 14.4586 13.6391 14.3945 13.7814C14.3303 13.9236 14.2954 14.0773 14.2917 14.2334C14.2917 14.3773 14.3206 14.5198 14.3767 14.6524C14.4328 14.7849 14.515 14.9048 14.6184 15.005C14.7218 15.1051 14.8443 15.1834 14.9786 15.2353C15.1129 15.2871 15.2562 15.3114 15.4001 15.3067C15.7083 15.2991 16.003 15.1787 16.2284 14.9684C16.852 14.2377 17.6264 13.6507 18.4985 13.2479C19.3705 12.8451 20.3195 12.636 21.2801 12.635C24.0334 12.635 25.7484 14.4084 25.7484 16.6134V16.6717C25.7484 19.25 23.6951 20.685 20.4517 20.93C20.3204 20.9351 20.1916 20.9678 20.0738 21.0261C19.956 21.0844 19.8519 21.1669 19.7682 21.2682C19.6845 21.3696 19.6231 21.4874 19.5881 21.6141C19.5531 21.7408 19.5453 21.8734 19.5651 22.0034C19.5651 22.0034 19.5651 24.71 19.5651 25.2117C19.5941 25.5005 19.7297 25.7681 19.9454 25.9622C20.1612 26.1564 20.4415 26.2631 20.7317 26.2617H20.8601C21.1489 26.2327 21.4165 26.0971 21.6106 25.8813C21.8048 25.6656 21.9115 25.3853 21.9101 25.095V22.6917C25.4101 22.2017 28.2451 20.3584 28.2451 16.5317V16.4734C28.2101 12.9734 25.4801 10.4067 21.3384 10.4067Z" fill="black"/>
<path d="M20.7432 32.025C21.5487 32.025 22.2016 31.3721 22.2016 30.5667C22.2016 29.7613 21.5487 29.1083 20.7432 29.1083C19.9378 29.1083 19.2849 29.7613 19.2849 30.5667C19.2849 31.3721 19.9378 32.025 20.7432 32.025Z" fill="black"/>
</g>
<defs>
<clipPath id="clip0_2157_754">
<rect width="42" height="42" fill="white"/>
</clipPath>
</defs>
</svg>
