<svg width="27" height="14" viewBox="0 0 27 14" fill="none" xmlns="http://www.w3.org/2000/svg">
<path d="M0.133875 13.2228H2.50856V3.88981H0.134938L0.133875 13.2228ZM1.32387 0C0.537625 0 0 0.555688 0 1.2835C0 1.99219 0.516375 2.54787 1.30262 2.54787C2.12606 2.54787 2.64456 1.99219 2.64456 1.2835C2.62331 0.555688 2.12394 0 1.32069 0H1.32387ZM10.5995 0.0956252C6.95831 0.0956252 4.46887 2.89319 4.46887 6.86056C4.46887 10.6537 6.76706 13.4321 10.4082 13.4321C13.9729 13.4321 16.5984 10.9607 16.5984 6.63C16.5984 2.95056 14.3756 0.0956252 10.6006 0.0956252H10.5995ZM10.5411 11.5366C8.28006 11.5366 6.95725 9.44775 6.95725 6.82231C6.95725 4.15862 8.2025 1.99325 10.5411 1.99325C12.8977 1.99325 14.1047 4.2925 14.1047 6.72669C14.1047 9.42969 12.8222 11.5366 10.5411 11.5366ZM23.1157 5.71094C21.3924 5.04156 20.6444 4.58044 20.6444 3.58381C20.6444 2.83688 21.2946 2.03256 22.7906 2.03256C23.9987 2.03256 24.8944 2.39594 25.3576 2.64456L25.9314 0.749062C25.2492 0.40375 24.2282 0.09775 22.8161 0.09775C20.0186 0.09775 18.2548 1.70744 18.2548 3.8165C18.2548 5.67588 19.6148 6.80425 21.743 7.57138C23.392 8.16638 24.0401 8.74012 24.0401 9.71762C24.0401 10.7716 23.1933 11.4814 21.6739 11.4814C20.4659 11.4814 19.3152 11.0989 18.5523 10.6569L18.0381 12.6119C18.7478 13.0337 20.1652 13.4194 21.5231 13.4194C24.8593 13.4194 26.4276 11.6237 26.4276 9.54656C26.452 7.68719 25.3597 6.55669 23.1157 5.71306V5.71094Z" fill="black"/>
</svg>
