<svg width="48" height="48" viewBox="0 0 48 48" fill="none" xmlns="http://www.w3.org/2000/svg">
<rect width="48" height="48" rx="8" fill="#A9C5EC"/>
<path d="M24.4998 28.1469C23.1175 28.1469 21.9425 27.6631 20.9749 26.6955C20.0073 25.7279 19.5235 24.5529 19.5235 23.1706V13.218C19.5235 11.8357 20.0073 10.6607 20.9749 9.69307C21.9425 8.72545 23.1175 8.24164 24.4998 8.24164C25.8821 8.24164 27.0571 8.72545 28.0247 9.69307C28.9923 10.6607 29.4761 11.8357 29.4761 13.218V23.1706C29.4761 24.5529 28.9923 25.7279 28.0247 26.6955C27.0571 27.6631 25.8821 28.1469 24.4998 28.1469ZM22.841 38.0996V34.6576C20.2976 34.2982 18.1207 33.22 16.3104 31.423C14.5001 29.626 13.4009 27.442 13.0128 24.8709C12.9575 24.4009 13.0819 24 13.386 23.6683C13.6901 23.3365 14.0771 23.1706 14.5471 23.1706C15.0171 23.1706 15.4113 23.3299 15.7298 23.6484C16.0483 23.9668 16.2623 24.3605 16.3718 24.8294C16.7588 26.7646 17.7198 28.3543 19.2547 29.5984C20.7897 30.8425 22.538 31.4645 24.4998 31.4645C26.4903 31.4645 28.2459 30.8358 29.7664 29.5785C31.2869 28.3211 32.2407 26.7381 32.6278 24.8294C32.7384 24.3594 32.9529 23.9657 33.2714 23.6484C33.5899 23.331 33.9836 23.1717 34.4524 23.1706C34.9213 23.1695 35.3084 23.3354 35.6136 23.6683C35.9188 24.0011 36.0432 24.402 35.9868 24.8709C35.5998 27.3867 34.5077 29.5569 32.7107 31.3816C30.9137 33.2062 28.7297 34.2982 26.1586 34.6576V38.0996C26.1586 38.5696 25.9993 38.9638 25.6808 39.2823C25.3623 39.6008 24.9687 39.7595 24.4998 39.7584C24.0309 39.7573 23.6372 39.598 23.3187 39.2807C23.0002 38.9633 22.841 38.5696 22.841 38.0996ZM24.4998 24.8294C24.9698 24.8294 25.364 24.6702 25.6825 24.3517C26.001 24.0332 26.1597 23.6395 26.1586 23.1706V13.218C26.1586 12.748 25.9993 12.3543 25.6808 12.0369C25.3623 11.7195 24.9687 11.5603 24.4998 11.5592C24.0309 11.5581 23.6372 11.7173 23.3187 12.0369C23.0002 12.3565 22.841 12.7502 22.841 13.218V23.1706C22.841 23.6406 23.0002 24.0348 23.3187 24.3533C23.6372 24.6718 24.0309 24.8305 24.4998 24.8294Z" fill="#0A4BA6"/>
</svg>
