<svg width="30" height="34" viewBox="0 0 30 34" fill="none" xmlns="http://www.w3.org/2000/svg">
<path fill-rule="evenodd" clip-rule="evenodd" d="M11.8333 4.83647L3.91667 5.82606V13.928H11.8333V4.83647ZM15 4.44064V13.928H26.0833V3.05522L15 4.44064ZM11.8333 17.0946H3.91667V25.1966L11.8333 26.1861V17.0946ZM15 26.582V17.0946H26.0833V27.9674L15 26.582ZM0.75 5.82447V25.1966C0.749832 25.9685 1.03166 26.714 1.54249 27.2927C2.05333 27.8715 2.75799 28.2437 3.524 28.3395L26.5805 31.2211C26.9146 31.2629 27.2538 31.2331 27.5755 31.1338C27.8972 31.0345 28.1941 30.8679 28.4466 30.6451C28.699 30.4224 28.9012 30.1484 29.0397 29.8415C29.1782 29.5347 29.2499 29.2018 29.25 28.8651V2.15747C29.2499 1.82078 29.1782 1.48795 29.0397 1.18106C28.9012 0.874182 28.699 0.600258 28.4466 0.377462C28.1941 0.154667 27.8972 -0.011907 27.5755 -0.111211C27.2538 -0.210515 26.9146 -0.240278 26.5805 -0.198528L3.524 2.68314C2.75799 2.77886 2.05333 3.1511 1.54249 3.72987C1.03166 4.30865 0.749832 5.05251 0.75 5.82447Z" fill="black"/>
</svg>
