<svg width="24" height="24" viewBox="0 0 24 24" fill="none" xmlns="http://www.w3.org/2000/svg">
<path d="M3 21L7.63 16.369M7.635 16.364L4.855 13.584C3.901 12.631 4.861 10.588 6.165 10.506C7.343 10.431 10.07 10.858 10.977 9.95099L13.467 7.46099C14.084 6.84299 13.692 5.46099 13.652 4.69899C13.594 3.68299 15.21 2.42799 16.067 3.28499L20.714 7.93299C21.574 8.79099 20.314 10.402 19.301 10.348C18.539 10.308 17.156 9.91599 16.538 10.533L14.048 13.023C13.142 13.93 13.568 16.656 13.494 17.834C13.412 19.139 11.369 20.099 10.414 19.144L7.635 16.364Z" stroke="white" stroke-width="1.5" stroke-linecap="round" stroke-linejoin="round"/>
</svg>
