<svg width="42" height="42" viewBox="0 0 42 42" fill="none" xmlns="http://www.w3.org/2000/svg">
<path d="M22.3125 10.5H10.9375C7.55476 10.5 4.8125 13.2423 4.8125 16.625V25.375C4.8125 28.7577 7.55476 31.5 10.9375 31.5H22.3125C25.6952 31.5 28.4375 28.7577 28.4375 25.375V16.625C28.4375 13.2423 25.6952 10.5 22.3125 10.5Z" stroke="black" stroke-width="3" stroke-linecap="round" stroke-linejoin="round"/>
<path d="M28.4375 17.045L34.657 13.9475C34.9238 13.8145 35.2201 13.7519 35.5179 13.7656C35.8157 13.7793 36.105 13.8689 36.3585 14.0258C36.612 14.1826 36.8212 14.4017 36.9663 14.6621C37.1113 14.9225 37.1875 15.2156 37.1875 15.5137V26.4827C37.1876 26.7811 37.1115 27.0745 36.9663 27.3351C36.8212 27.5957 36.6118 27.8149 36.3581 27.9719C36.1043 28.1288 35.8147 28.2183 35.5167 28.2318C35.2187 28.2453 34.9221 28.1823 34.6552 28.049L28.4375 24.9462V17.045Z" stroke="black" stroke-width="3" stroke-linecap="round" stroke-linejoin="round"/>
</svg>
