<svg width="42" height="42" viewBox="0 0 42 42" fill="none" xmlns="http://www.w3.org/2000/svg">
<path d="M34.8023 21.9292L37.1753 24.0424C37.6135 24.4081 37.9063 24.9185 38.0007 25.4814C38.0951 26.0443 37.9848 26.6224 37.6898 27.111L34.8285 31.9987C34.6066 32.3729 34.2896 32.6817 33.9098 32.8939C33.5256 33.1065 33.0942 33.2193 32.655 33.222C32.3827 33.2237 32.1117 33.1829 31.8518 33.1012L28.8147 32.0985C28.2827 32.4397 27.7297 32.7451 27.1557 33.0146L26.5178 36.0937C26.3998 36.6602 26.0844 37.1662 25.6279 37.5217C25.1657 37.8836 24.5926 38.0746 24.0057 38.0625H18.081C17.4941 38.0746 16.921 37.8836 16.4588 37.5217C16.0033 37.1658 15.6889 36.6598 15.5715 36.0937L14.931 33.0146C14.3646 32.7415 13.815 32.4347 13.2852 32.0959L10.2375 33.1012C9.97769 33.1829 9.70669 33.2237 9.4343 33.222C8.99608 33.2189 8.56562 33.1061 8.18217 32.8939C7.8027 32.6824 7.48577 32.3746 7.26342 32.0014L4.2998 27.111C3.9917 26.618 3.87397 26.0295 3.96869 25.4559C4.0634 24.8823 4.36406 24.3629 4.8143 23.9951L7.18467 21V20.0707L4.81167 17.9576C4.37346 17.5919 4.08067 17.0815 3.98629 16.5186C3.89191 15.9557 4.0022 15.3776 4.29717 14.889L7.2608 10.0012C7.48278 9.6271 7.79974 9.31829 8.17955 9.10612C8.56299 8.89394 8.99345 8.78114 9.43167 8.778C9.70161 8.76097 9.97256 8.78576 10.2349 8.8515L13.2222 9.9015C13.7559 9.56025 14.3089 9.25487 14.8812 8.98537L15.5217 5.90625C15.639 5.34021 15.9534 4.83419 16.4089 4.47825C16.8712 4.11638 17.4443 3.92535 18.0312 3.9375H23.9059C24.4928 3.92535 25.0659 4.11638 25.5282 4.47825C25.9875 4.83787 26.3025 5.3445 26.4154 5.90625L27.0559 8.98537C27.6247 9.25662 28.1733 9.56287 28.7018 9.90412L31.752 8.90137C32.0906 8.79124 32.4483 8.75258 32.8025 8.78782C33.1568 8.82307 33.4999 8.93145 33.81 9.10612C34.1907 9.32137 34.5057 9.63112 34.7288 9.99862L37.6898 14.889C38.002 15.3778 38.1258 15.9636 38.0379 16.5369C37.9499 17.1103 37.6564 17.632 37.212 18.0049L34.8023 20.0576V21.9292Z" stroke="black" stroke-width="2.625"/>
<path d="M27.5625 21C27.5625 22.7405 26.8711 24.4097 25.6404 25.6404C24.4097 26.8711 22.7405 27.5625 21 27.5625C19.2595 27.5625 17.5903 26.8711 16.3596 25.6404C15.1289 24.4097 14.4375 22.7405 14.4375 21C14.4375 19.2595 15.1289 17.5903 16.3596 16.3596C17.5903 15.1289 19.2595 14.4375 21 14.4375C22.7405 14.4375 24.4097 15.1289 25.6404 16.3596C26.8711 17.5903 27.5625 19.2595 27.5625 21Z" stroke="black" stroke-width="2.625"/>
</svg>
