<svg width="50" height="50" viewBox="0 0 50 50" fill="none" xmlns="http://www.w3.org/2000/svg">
<path d="M29.1666 39.5833C29.1666 37.2821 27.3011 35.4167 24.9999 35.4167C22.6987 35.4167 20.8333 37.2821 20.8333 39.5833C20.8333 41.8845 22.6987 43.75 24.9999 43.75C27.3011 43.75 29.1666 41.8845 29.1666 39.5833Z" stroke="black" stroke-width="2.625"/>
<path d="M29.1666 25C29.1666 22.6988 27.3011 20.8334 24.9999 20.8334C22.6987 20.8334 20.8333 22.6988 20.8333 25C20.8333 27.3012 22.6987 29.1667 24.9999 29.1667C27.3011 29.1667 29.1666 27.3012 29.1666 25Z" stroke="black" stroke-width="2.625"/>
<path d="M29.1666 10.4166C29.1666 8.11546 27.3011 6.24998 24.9999 6.24998C22.6987 6.24998 20.8333 8.11546 20.8333 10.4166C20.8333 12.7178 22.6987 14.5833 24.9999 14.5833C27.3011 14.5833 29.1666 12.7178 29.1666 10.4166Z" stroke="black" stroke-width="2.625"/>
</svg>
