<svg width="24" height="24" viewBox="0 0 24 24" fill="none" xmlns="http://www.w3.org/2000/svg">
<path d="M13.041 3.05997C13.1768 3.11716 13.2928 3.2131 13.3745 3.33582C13.4561 3.45854 13.4998 3.60259 13.5 3.74997V20.25C13.5 20.3977 13.4564 20.5421 13.3746 20.6651C13.2928 20.788 13.1766 20.8842 13.0404 20.9414C12.9043 20.9985 12.7542 21.0143 12.6092 20.9865C12.4641 20.9588 12.3305 20.8889 12.225 20.7855L7.8345 16.473H5.25C4.65326 16.473 4.08097 16.2359 3.65901 15.814C3.23705 15.392 3 14.8197 3 14.223V9.73797C3 9.14124 3.23705 8.56894 3.65901 8.14698C4.08097 7.72503 4.65326 7.48797 5.25 7.48797H7.836L12.2265 3.21297C12.332 3.11001 12.4656 3.04044 12.6105 3.01296C12.7553 2.98548 12.9051 3.00281 13.041 3.05997ZM12 5.52597L8.6655 8.77647C8.52508 8.91338 8.33662 8.98985 8.1405 8.98947H5.25C5.05109 8.98947 4.86032 9.06849 4.71967 9.20914C4.57902 9.3498 4.5 9.54056 4.5 9.73947V14.223C4.5 14.4219 4.57902 14.6127 4.71967 14.7533C4.86032 14.894 5.05109 14.973 5.25 14.973H8.142C8.33833 14.973 8.52682 15.05 8.667 15.1875L12 18.462V5.52597ZM15.1665 7.78197C15.2278 7.7048 15.3038 7.64048 15.39 7.59268C15.4762 7.54488 15.5709 7.51454 15.6689 7.50339C15.7668 7.49225 15.866 7.50052 15.9607 7.52773C16.0555 7.55494 16.1439 7.60056 16.221 7.66197L16.224 7.66347L16.227 7.66647L16.2345 7.67247L16.257 7.69197L16.326 7.75197C16.381 7.80197 16.452 7.87297 16.539 7.96497C16.7085 8.14947 16.929 8.41797 17.1465 8.77497C17.583 9.49497 18.006 10.5645 18.006 11.997C18.006 13.428 17.583 14.499 17.1465 15.219C16.9715 15.509 16.7679 15.7808 16.539 16.0305C16.4427 16.1332 16.3415 16.2313 16.236 16.3245L16.224 16.335H16.2225C16.2225 16.335 15.552 16.6995 15.168 16.218C15.0445 16.0635 14.9871 15.8665 15.0081 15.6698C15.0292 15.4732 15.1271 15.2928 15.2805 15.168L15.2835 15.165L15.3105 15.141C15.3385 15.116 15.381 15.0735 15.438 15.0135C15.5986 14.8371 15.7413 14.6451 15.864 14.4405C16.179 13.923 16.506 13.1175 16.506 11.9955C16.506 10.8735 16.179 10.071 15.864 9.55497C15.7095 9.30055 15.5241 9.06626 15.312 8.85747L15.285 8.83347C15.1303 8.70947 15.0309 8.52924 15.0087 8.33218C14.9865 8.13513 15.0432 7.9373 15.1665 7.78197ZM17.7195 4.66197C17.6427 4.59843 17.554 4.55083 17.4586 4.52195C17.3633 4.49307 17.2631 4.48349 17.1639 4.49377C17.0648 4.50406 16.9687 4.534 16.8813 4.58184C16.7938 4.62969 16.7168 4.69448 16.6547 4.77244C16.5926 4.85039 16.5467 4.93994 16.5196 5.03585C16.4925 5.13177 16.4848 5.23212 16.4969 5.33104C16.509 5.42997 16.5408 5.52549 16.5902 5.61201C16.6397 5.69854 16.7059 5.77433 16.785 5.83497L16.8015 5.84997L16.8795 5.91747C16.9515 5.98047 17.052 6.07797 17.181 6.20997C17.436 6.47547 17.781 6.87447 18.126 7.40097C18.816 8.45247 19.506 10.0005 19.506 12.0045C19.5119 13.6399 19.0315 15.2401 18.126 16.602C17.781 17.127 17.436 17.523 17.181 17.787C17.0603 17.9124 16.9342 18.0325 16.803 18.147L16.7865 18.162H16.785C16.6336 18.2873 16.5375 18.4669 16.5172 18.6624C16.4969 18.8578 16.5541 19.0534 16.6766 19.2071C16.799 19.3608 16.9769 19.4603 17.1719 19.4842C17.3669 19.5081 17.5636 19.4545 17.7195 19.335L17.769 19.2945L17.8815 19.197C17.976 19.1115 18.1065 18.99 18.261 18.8295C18.677 18.3975 19.0517 17.9274 19.38 17.4255C20.4455 15.8188 21.0109 13.9323 21.0045 12.0045C21.0085 10.0751 20.4434 8.18736 19.38 6.57747C19.0516 6.07508 18.6775 5.60408 18.2625 5.17047C18.1056 5.00764 17.9414 4.85198 17.7705 4.70397L17.736 4.67547L17.7255 4.66647L17.7225 4.66347L17.7195 4.66197Z" fill="white"/>
</svg>
