<svg width="24" height="24" viewBox="0 0 24 24" fill="none" xmlns="http://www.w3.org/2000/svg">
<path d="M21.5309 2.4705C20.8926 1.83344 20.0276 1.47565 19.1257 1.47565C18.2238 1.47565 17.3588 1.83344 16.7204 2.4705L10.3454 8.8455C10.2631 8.92761 10.2009 9.02775 10.1639 9.138L8.28894 14.763C8.24477 14.8951 8.23826 15.0369 8.27015 15.1725C8.30203 15.3081 8.37106 15.4322 8.46948 15.5307C8.5679 15.6293 8.69184 15.6985 8.82739 15.7306C8.96294 15.7628 9.10476 15.7565 9.23694 15.7125L14.8619 13.8375C14.9727 13.8007 15.0734 13.7386 15.1559 13.656L21.5309 7.281C22.168 6.64264 22.5258 5.77762 22.5258 4.87575C22.5258 3.97389 22.168 3.10886 21.5309 2.4705ZM17.7809 3.531C18.1395 3.18359 18.6202 2.99108 19.1195 2.99501C19.6187 2.99895 20.0964 3.19901 20.4494 3.55204C20.8024 3.90506 21.0025 4.38273 21.0064 4.88196C21.0104 5.38119 20.8179 5.86196 20.4704 6.2205L14.2199 12.4695L10.1849 13.815L11.5304 9.78L17.7809 3.531ZM11.9999 4.5C12.1839 4.5 12.3669 4.5065 12.5489 4.5195L13.8734 3.195C11.9749 2.79135 9.99682 3.01225 8.23414 3.82477C6.47146 4.63728 5.01868 5.99786 4.09249 7.70356C3.16631 9.40926 2.81636 11.3687 3.09484 13.2895C3.37332 15.2104 4.26531 16.9897 5.63776 18.3622C7.01021 19.7346 8.78956 20.6266 10.7104 20.9051C12.6313 21.1836 14.5907 20.8336 16.2964 19.9075C18.0021 18.9813 19.3627 17.5285 20.1752 15.7658C20.9877 14.0031 21.2086 12.025 20.8049 10.1265L19.4804 11.4525C19.4934 11.6325 19.4999 11.815 19.4999 12C19.4999 13.4834 19.0601 14.9334 18.236 16.1668C17.4118 17.4001 16.2405 18.3614 14.8701 18.9291C13.4996 19.4968 11.9916 19.6453 10.5368 19.3559C9.0819 19.0665 7.74553 18.3522 6.69664 17.3033C5.64774 16.2544 4.93344 14.918 4.64405 13.4632C4.35466 12.0083 4.50319 10.5003 5.07084 9.12988C5.6385 7.75943 6.59979 6.58809 7.83316 5.76398C9.06653 4.93987 10.5166 4.5 11.9999 4.5Z" fill="white"/>
</svg>
