<svg width="29" height="29" viewBox="0 0 29 29" fill="none" xmlns="http://www.w3.org/2000/svg">
<path d="M3.625 14.5C3.625 15.9281 3.90629 17.3423 4.45281 18.6617C4.99933 19.9811 5.80038 21.1799 6.81021 22.1898C7.82005 23.1996 9.0189 24.0007 10.3383 24.5472C11.6577 25.0937 13.0719 25.375 14.5 25.375C15.9281 25.375 17.3423 25.0937 18.6617 24.5472C19.9811 24.0007 21.1799 23.1996 22.1898 22.1898C23.1996 21.1799 24.0007 19.9811 24.5472 18.6617C25.0937 17.3423 25.375 15.9281 25.375 14.5C25.375 11.6158 24.2292 8.84967 22.1898 6.81021C20.1503 4.77076 17.3842 3.625 14.5 3.625C11.6158 3.625 8.84967 4.77076 6.81021 6.81021C4.77076 8.84967 3.625 11.6158 3.625 14.5Z" stroke="white" stroke-width="2" stroke-linecap="round" stroke-linejoin="round"/>
<path d="M14.5 8.45831V14.5L18.125 18.125" stroke="white" stroke-width="2" stroke-linecap="round" stroke-linejoin="round"/>
</svg>
