<svg width="42" height="42" viewBox="0 0 42 42" fill="none" xmlns="http://www.w3.org/2000/svg">
<path d="M18.375 26.4862L13.6631 21.7744L11.8125 23.625L18.375 30.1875L30.1875 18.375L28.3369 16.5112L18.375 26.4862Z" fill="black"/>
<path d="M32.8125 6.5625H28.875V5.25C28.875 4.55381 28.5984 3.88613 28.1062 3.39384C27.6139 2.90156 26.9462 2.625 26.25 2.625H15.75C15.0538 2.625 14.3861 2.90156 13.8938 3.39384C13.4016 3.88613 13.125 4.55381 13.125 5.25V6.5625H9.1875C8.49131 6.5625 7.82363 6.83906 7.33134 7.33134C6.83906 7.82363 6.5625 8.49131 6.5625 9.1875V36.75C6.5625 37.4462 6.83906 38.1139 7.33134 38.6062C7.82363 39.0984 8.49131 39.375 9.1875 39.375H32.8125C33.5087 39.375 34.1764 39.0984 34.6687 38.6062C35.1609 38.1139 35.4375 37.4462 35.4375 36.75V9.1875C35.4375 8.49131 35.1609 7.82363 34.6687 7.33134C34.1764 6.83906 33.5087 6.5625 32.8125 6.5625ZM15.75 5.25H26.25V10.5H15.75V5.25ZM32.8125 36.75H9.1875V9.1875H13.125V13.125H28.875V9.1875H32.8125V36.75Z" fill="black"/>
</svg>
