<svg width="42" height="42" viewBox="0 0 42 42" fill="none" xmlns="http://www.w3.org/2000/svg">
<mask id="path-1-inside-1_2157_759" fill="white">
<path d="M21 6.30001C20.1645 6.30001 19.3633 6.63189 18.7726 7.22263C18.1818 7.81337 17.85 8.61458 17.85 9.45001C17.85 10.2854 18.1818 11.0867 18.7726 11.6774C19.3633 12.2681 20.1645 12.6 21 12.6C21.8354 12.6 22.6366 12.2681 23.2273 11.6774C23.8181 11.0867 24.15 10.2854 24.15 9.45001C24.15 8.61458 23.8181 7.81337 23.2273 7.22263C22.6366 6.63189 21.8354 6.30001 21 6.30001ZM15.75 9.45001C15.75 8.05763 16.3031 6.72227 17.2876 5.7377C18.2722 4.75314 19.6076 4.20001 21 4.20001C22.3923 4.20001 23.7277 4.75314 24.7123 5.7377C25.6968 6.72227 26.25 8.05763 26.25 9.45001C26.25 10.8424 25.6968 12.1778 24.7123 13.1623C23.7277 14.1469 22.3923 14.7 21 14.7C19.6076 14.7 18.2722 14.1469 17.2876 13.1623C16.3031 12.1778 15.75 10.8424 15.75 9.45001ZM32.5499 8.40001C31.993 8.40001 31.4589 8.62126 31.065 9.01509C30.6712 9.40891 30.4499 9.94306 30.4499 10.5C30.4499 11.057 30.6712 11.5911 31.065 11.9849C31.4589 12.3788 31.993 12.6 32.5499 12.6C33.1069 12.6 33.641 12.3788 34.0349 11.9849C34.4287 11.5911 34.65 11.057 34.65 10.5C34.65 9.94306 34.4287 9.40891 34.0349 9.01509C33.641 8.62126 33.1069 8.40001 32.5499 8.40001ZM28.35 10.5C28.35 9.3861 28.7924 8.31782 29.5801 7.53016C30.3678 6.74251 31.436 6.30001 32.5499 6.30001C33.6639 6.30001 34.7321 6.74251 35.5198 7.53016C36.3074 8.31782 36.75 9.3861 36.75 10.5C36.75 11.6139 36.3074 12.6822 35.5198 13.4699C34.7321 14.2575 33.6639 14.7 32.5499 14.7C31.436 14.7 30.3678 14.2575 29.5801 13.4699C28.7924 12.6822 28.35 11.6139 28.35 10.5ZM7.34995 10.5C7.34995 9.94306 7.5712 9.40891 7.96503 9.01509C8.35885 8.62126 8.893 8.40001 9.44995 8.40001C10.0069 8.40001 10.541 8.62126 10.9349 9.01509C11.3287 9.40891 11.55 9.94306 11.55 10.5C11.55 11.057 11.3287 11.5911 10.9349 11.9849C10.541 12.3788 10.0069 12.6 9.44995 12.6C8.893 12.6 8.35885 12.3788 7.96503 11.9849C7.5712 11.5911 7.34995 11.057 7.34995 10.5ZM9.44995 6.30001C8.33604 6.30001 7.26776 6.74251 6.4801 7.53016C5.69245 8.31782 5.24995 9.3861 5.24995 10.5C5.24995 11.6139 5.69245 12.6822 6.4801 13.4699C7.26776 14.2575 8.33604 14.7 9.44995 14.7C10.5639 14.7 11.6321 14.2575 12.4198 13.4699C13.2075 12.6822 13.65 11.6139 13.65 10.5C13.65 9.3861 13.2075 8.31782 12.4198 7.53016C11.6321 6.74251 10.5639 6.30001 9.44995 6.30001ZM10.71 31.4958L10.5 31.5C9.38604 31.5 8.31776 31.0575 7.5301 30.2699C6.74245 29.4822 6.29995 28.4139 6.29995 27.3V19.425C6.29995 19.2858 6.35526 19.1522 6.45372 19.0538C6.55218 18.9553 6.68571 18.9 6.82495 18.9H10.5294C10.6134 18.1293 10.8864 17.4132 11.2959 16.8H6.82495C5.37595 16.8 4.19995 17.976 4.19995 19.425V27.3C4.19985 28.1991 4.39218 29.0877 4.76401 29.9063C5.13585 30.7248 5.67857 31.4543 6.35572 32.0457C7.03286 32.6371 7.82875 33.0768 8.68989 33.3351C9.55103 33.5934 10.4575 33.6644 11.3484 33.5433C11.0662 32.8844 10.8523 32.1983 10.71 31.4958ZM30.6516 33.5433C30.9287 33.5811 31.2115 33.6 31.5 33.6C33.1708 33.6 34.7732 32.9363 35.9547 31.7548C37.1362 30.5733 37.7999 28.9709 37.7999 27.3V19.425C37.7999 17.976 36.624 16.8 35.1749 16.8H30.7041C31.1157 17.4132 31.3866 18.1293 31.4706 18.9H35.1749C35.3142 18.9 35.4477 18.9553 35.5462 19.0538C35.6446 19.1522 35.6999 19.2858 35.6999 19.425V27.3C35.7001 27.8693 35.5845 28.4327 35.3602 28.956C35.1358 29.4793 34.8074 29.9515 34.395 30.3439C33.9825 30.7363 33.4946 31.0408 32.9608 31.2388C32.427 31.4368 31.8586 31.5243 31.2899 31.4958C31.1476 32.1983 30.9337 32.8844 30.6516 33.5433ZM15.225 16.8C13.776 16.8 12.6 17.976 12.6 19.425V29.4C12.6 31.6278 13.4849 33.7644 15.0603 35.3397C16.6356 36.915 18.7721 37.8 21 37.8C23.2278 37.8 25.3643 36.915 26.9396 35.3397C28.515 33.7644 29.4 31.6278 29.4 29.4V19.425C29.4 17.976 28.2239 16.8 26.775 16.8H15.225ZM14.7 19.425C14.7 19.2858 14.7553 19.1522 14.8537 19.0538C14.9522 18.9553 15.0857 18.9 15.225 18.9H26.775C26.9142 18.9 27.0477 18.9553 27.1462 19.0538C27.2446 19.1522 27.2999 19.2858 27.2999 19.425V29.4C27.2999 31.0709 26.6362 32.6733 25.4547 33.8548C24.2732 35.0363 22.6708 35.7 21 35.7C19.3291 35.7 17.7267 35.0363 16.5452 33.8548C15.3637 32.6733 14.7 31.0709 14.7 29.4V19.425Z"/>
</mask>
<path d="M21 6.30001C20.1645 6.30001 19.3633 6.63189 18.7726 7.22263C18.1818 7.81337 17.85 8.61458 17.85 9.45001C17.85 10.2854 18.1818 11.0867 18.7726 11.6774C19.3633 12.2681 20.1645 12.6 21 12.6C21.8354 12.6 22.6366 12.2681 23.2273 11.6774C23.8181 11.0867 24.15 10.2854 24.15 9.45001C24.15 8.61458 23.8181 7.81337 23.2273 7.22263C22.6366 6.63189 21.8354 6.30001 21 6.30001ZM15.75 9.45001C15.75 8.05763 16.3031 6.72227 17.2876 5.7377C18.2722 4.75314 19.6076 4.20001 21 4.20001C22.3923 4.20001 23.7277 4.75314 24.7123 5.7377C25.6968 6.72227 26.25 8.05763 26.25 9.45001C26.25 10.8424 25.6968 12.1778 24.7123 13.1623C23.7277 14.1469 22.3923 14.7 21 14.7C19.6076 14.7 18.2722 14.1469 17.2876 13.1623C16.3031 12.1778 15.75 10.8424 15.75 9.45001ZM32.5499 8.40001C31.993 8.40001 31.4589 8.62126 31.065 9.01509C30.6712 9.40891 30.4499 9.94306 30.4499 10.5C30.4499 11.057 30.6712 11.5911 31.065 11.9849C31.4589 12.3788 31.993 12.6 32.5499 12.6C33.1069 12.6 33.641 12.3788 34.0349 11.9849C34.4287 11.5911 34.65 11.057 34.65 10.5C34.65 9.94306 34.4287 9.40891 34.0349 9.01509C33.641 8.62126 33.1069 8.40001 32.5499 8.40001ZM28.35 10.5C28.35 9.3861 28.7924 8.31782 29.5801 7.53016C30.3678 6.74251 31.436 6.30001 32.5499 6.30001C33.6639 6.30001 34.7321 6.74251 35.5198 7.53016C36.3074 8.31782 36.75 9.3861 36.75 10.5C36.75 11.6139 36.3074 12.6822 35.5198 13.4699C34.7321 14.2575 33.6639 14.7 32.5499 14.7C31.436 14.7 30.3678 14.2575 29.5801 13.4699C28.7924 12.6822 28.35 11.6139 28.35 10.5ZM7.34995 10.5C7.34995 9.94306 7.5712 9.40891 7.96503 9.01509C8.35885 8.62126 8.893 8.40001 9.44995 8.40001C10.0069 8.40001 10.541 8.62126 10.9349 9.01509C11.3287 9.40891 11.55 9.94306 11.55 10.5C11.55 11.057 11.3287 11.5911 10.9349 11.9849C10.541 12.3788 10.0069 12.6 9.44995 12.6C8.893 12.6 8.35885 12.3788 7.96503 11.9849C7.5712 11.5911 7.34995 11.057 7.34995 10.5ZM9.44995 6.30001C8.33604 6.30001 7.26776 6.74251 6.4801 7.53016C5.69245 8.31782 5.24995 9.3861 5.24995 10.5C5.24995 11.6139 5.69245 12.6822 6.4801 13.4699C7.26776 14.2575 8.33604 14.7 9.44995 14.7C10.5639 14.7 11.6321 14.2575 12.4198 13.4699C13.2075 12.6822 13.65 11.6139 13.65 10.5C13.65 9.3861 13.2075 8.31782 12.4198 7.53016C11.6321 6.74251 10.5639 6.30001 9.44995 6.30001ZM10.71 31.4958L10.5 31.5C9.38604 31.5 8.31776 31.0575 7.5301 30.2699C6.74245 29.4822 6.29995 28.4139 6.29995 27.3V19.425C6.29995 19.2858 6.35526 19.1522 6.45372 19.0538C6.55218 18.9553 6.68571 18.9 6.82495 18.9H10.5294C10.6134 18.1293 10.8864 17.4132 11.2959 16.8H6.82495C5.37595 16.8 4.19995 17.976 4.19995 19.425V27.3C4.19985 28.1991 4.39218 29.0877 4.76401 29.9063C5.13585 30.7248 5.67857 31.4543 6.35572 32.0457C7.03286 32.6371 7.82875 33.0768 8.68989 33.3351C9.55103 33.5934 10.4575 33.6644 11.3484 33.5433C11.0662 32.8844 10.8523 32.1983 10.71 31.4958ZM30.6516 33.5433C30.9287 33.5811 31.2115 33.6 31.5 33.6C33.1708 33.6 34.7732 32.9363 35.9547 31.7548C37.1362 30.5733 37.7999 28.9709 37.7999 27.3V19.425C37.7999 17.976 36.624 16.8 35.1749 16.8H30.7041C31.1157 17.4132 31.3866 18.1293 31.4706 18.9H35.1749C35.3142 18.9 35.4477 18.9553 35.5462 19.0538C35.6446 19.1522 35.6999 19.2858 35.6999 19.425V27.3C35.7001 27.8693 35.5845 28.4327 35.3602 28.956C35.1358 29.4793 34.8074 29.9515 34.395 30.3439C33.9825 30.7363 33.4946 31.0408 32.9608 31.2388C32.427 31.4368 31.8586 31.5243 31.2899 31.4958C31.1476 32.1983 30.9337 32.8844 30.6516 33.5433ZM15.225 16.8C13.776 16.8 12.6 17.976 12.6 19.425V29.4C12.6 31.6278 13.4849 33.7644 15.0603 35.3397C16.6356 36.915 18.7721 37.8 21 37.8C23.2278 37.8 25.3643 36.915 26.9396 35.3397C28.515 33.7644 29.4 31.6278 29.4 29.4V19.425C29.4 17.976 28.2239 16.8 26.775 16.8H15.225ZM14.7 19.425C14.7 19.2858 14.7553 19.1522 14.8537 19.0538C14.9522 18.9553 15.0857 18.9 15.225 18.9H26.775C26.9142 18.9 27.0477 18.9553 27.1462 19.0538C27.2446 19.1522 27.2999 19.2858 27.2999 19.425V29.4C27.2999 31.0709 26.6362 32.6733 25.4547 33.8548C24.2732 35.0363 22.6708 35.7 21 35.7C19.3291 35.7 17.7267 35.0363 16.5452 33.8548C15.3637 32.6733 14.7 31.0709 14.7 29.4V19.425Z" fill="black" stroke="black" stroke-width="2" mask="url(#path-1-inside-1_2157_759)"/>
</svg>
